<?xml version="1.0" encoding="UTF-8"?>
<svg width="49px" height="48px" viewBox="0 0 49 48" version="1.1" xmlns="http://www.w3.org/2000/svg" xmlns:xlink="http://www.w3.org/1999/xlink">
    <!-- Generator: Sketch 61.2 (89653) - https://sketch.com -->
    <title>replay</title>
    <desc>Created with Sketch.</desc>
    <g id="replay" stroke="none" stroke-width="1" fill="none" fill-rule="evenodd">
        <path d="M27.9766002,6 C39.5745799,6 48.9766002,15.4020203 48.9766002,27 C48.9766002,38.5979797 39.5745799,48 27.9766002,48 C17.0535213,48 8.07826664,39.6603729 7.07069217,29.0009746 L14.1184984,29.0008423 C15.0893201,35.7850199 20.9239482,41 27.9766002,41 C35.7085867,41 41.9766002,34.7319865 41.9766002,27 C41.9766002,19.2680135 35.7085867,13 27.9766002,13 C22.6289108,13 17.9815199,15.9983346 15.623823,20.4056086 L12.8586595,17.56 L23.2662692,6.5303289 C24.7804848,6.1833158 26.3571346,6 27.9766002,6 Z" id="Combined-Shape" fill="#FFFFFF"></path>
        <g id="arrow" transform="translate(15.500000, 13.000000) scale(-1, 1) translate(-15.500000, -13.000000) " fill="#FFFFFF">
            <polygon id="Path-2" points="7.24791113 0 24 16.5840619 14.5190567 26 7.27114559 26 16.7520889 16.5840619 0 0"></polygon>
            <polygon id="Path-2-Copy" points="14.2479111 0 31 16.5840619 21.5190567 26 18.2711456 26 27.7520889 16.5840619 11 0"></polygon>
        </g>
    </g>
</svg>