<?xml version="1.0" encoding="UTF-8"?>
<svg width="50px" height="26px" viewBox="0 0 50 26" version="1.1" xmlns="http://www.w3.org/2000/svg" xmlns:xlink="http://www.w3.org/1999/xlink">
    <!-- Generator: Sketch 61.2 (89653) - https://sketch.com -->
    <title>wordUndef</title>
    <desc>Created with Sketch.</desc>
    <g id="wordUndef" stroke="none" stroke-width="1" fill="none" fill-rule="evenodd">
        <g id="bullet" transform="translate(9.000000, 0.000000)" fill="#C5C5C5">
            <circle id="Oval" cx="13" cy="13" r="13"></circle>
        </g>
        <path d="M5.09621053,14.56 L5.412,5.56 L1.412,5.56 L1.72778947,14.56 L5.09621053,14.56 Z M2.90037209,19.56 C4.412,19.56 5.412,18.7097585 5.412,17.5503382 C5.38874419,16.3715942 4.412,15.56 2.90037209,15.56 C1.412,15.56 0.412,16.3715942 0.412,17.5503382 C0.412,18.7097585 1.412,19.56 2.90037209,19.56 Z M13.2381563,19.56 C17.5092887,19.56 20.412,16.9681633 20.412,12.5395918 C20.412,8.15183673 17.488555,5.56 13.2381563,5.56 L7.412,5.56 L7.412,19.56 L13.2381563,19.56 Z M13.3085517,16.56 L11.412,16.56 L11.412,8.56 L13.3085517,8.56 C15.0901609,8.56 16.412,9.77827411 16.412,12.5396954 C16.412,15.3214213 15.109318,16.56 13.3085517,16.56 Z M33.412,19.56 L33.412,16.5395918 L26.3842222,16.5395918 L26.3842222,13.9885714 L32.3425556,13.9885714 L32.3425556,11.0702041 L26.3842222,11.0702041 L26.3842222,8.58040816 L33.302873,8.58040816 L33.302873,5.56 L22.412,5.56 L22.412,19.56 L33.412,19.56 Z M39.1338814,19.56 L39.1338814,14.682449 L44.6553538,14.682449 L44.6553538,11.7640816 L39.1338814,11.7640816 L39.1338814,8.58040816 L45.412,8.58040816 L45.412,5.56 L35.412,5.56 L35.412,19.56 L39.1338814,19.56 Z" id="!DEF" fill="#560000" fill-rule="nonzero"></path>
    </g>
</svg>