<?xml version="1.0" encoding="UTF-8"?>
<svg width="50px" height="26px" viewBox="0 0 50 26" version="1.1" xmlns="http://www.w3.org/2000/svg" xmlns:xlink="http://www.w3.org/1999/xlink">
    <!-- Generator: Sketch 61.2 (89653) - https://sketch.com -->
    <title>wordOk</title>
    <desc>Created with Sketch.</desc>
    <g id="wordOk" stroke="none" stroke-width="1" fill="none" fill-rule="evenodd">
        <g id="bullet" transform="translate(13.000000, 0.000000)" fill="#C5C5C5">
            <circle id="Oval" cx="13" cy="13" r="13"></circle>
        </g>
        <path d="M6.94290333,20.56 C9.2297496,20.56 10.7131094,19.5514163 11.5784025,18.1136481 L11.5784025,20.4312446 L13.412,20.4312446 L13.412,12.727382 L7.29314105,12.727382 L7.29314105,14.7874678 L11.1251537,14.7874678 C10.9397338,16.5471245 9.5593851,18.2853219 7.06651664,18.2638627 C4.61485261,18.2853219 2.9460729,16.3539914 2.9460729,13.0492704 C2.9460729,9.87330472 4.65605705,7.85613734 7.23133439,7.85613734 C9.53878288,7.85613734 10.5482916,9.25098712 10.7955182,10.753133 L13.3089889,10.753133 C13.0205578,7.81321888 10.9809382,5.56 7.23133439,5.56 C3.09028843,5.56 0.412,8.58575107 0.412,13.0278112 C0.412,17.6415451 3.00787956,20.56 6.94290333,20.56 Z M20.412,19.56 C23.4240482,19.56 25.412,17.48 25.412,14.54 C25.412,11.56 23.4240482,9.56 20.412,9.56 C17.4200321,9.56 15.412,11.68 15.412,14.64 C15.412,17.58 17.4200321,19.56 20.412,19.56 Z M19.912,17.56 C18.392,17.56 17.412,16.3519463 17.412,14.5801342 C17.412,12.7881879 18.392,11.56 19.912,11.56 C21.452,11.56 22.412,12.7881879 22.412,14.5801342 C22.412,16.3519463 21.452,17.56 19.912,17.56 Z M32.412,19.56 C35.4240482,19.56 37.412,17.48 37.412,14.54 C37.412,11.56 35.4240482,9.56 32.412,9.56 C29.4200321,9.56 27.412,11.68 27.412,14.64 C27.412,17.58 29.4200321,19.56 32.412,19.56 Z M31.912,17.56 C30.392,17.56 29.412,16.3519463 29.412,14.5801342 C29.412,12.7881879 30.392,11.56 31.912,11.56 C33.452,11.56 34.412,12.7881879 34.412,14.5801342 C34.412,16.3519463 33.452,17.56 31.912,17.56 Z M42.7844696,19.56 C44.3026883,19.56 45.3755628,18.8467133 45.9626073,17.9026573 L46.023336,19.4551049 L48.412,19.4551049 L48.412,4.56 L45.9423644,4.56 L45.9423644,10.6229371 C45.3958057,9.69986014 44.4241457,9.07048951 42.92617,9.07048951 C40.1731336,9.07048951 38.412,11.2942657 38.412,14.4411189 C38.412,17.6299301 40.2136194,19.56 42.7844696,19.56 Z M43.8216386,17.56 C42.3557751,17.56 41.412,16.4171429 41.412,14.6212245 C41.412,12.7844898 42.3959357,11.56 43.8417189,11.56 C45.5284659,11.56 46.412,12.9885714 46.412,14.2742857 L46.412,14.8661224 C46.412,16.0906122 45.5485462,17.56 43.8216386,17.56 Z" id="Good" fill="#008000" fill-rule="nonzero"></path>
    </g>
</svg>